<?xml version="1.0" encoding="utf-8"?>
<!-- Generator: Adobe Illustrator 25.2.1, SVG Export Plug-In . SVG Version: 6.00 Build 0)  -->
<svg version="1.1" id="Calque_1" xmlns="http://www.w3.org/2000/svg" xmlns:xlink="http://www.w3.org/1999/xlink" x="0px" y="0px"
	 viewBox="0 0 30 30" style="enable-background:new 0 0 30 30;" xml:space="preserve">
<style type="text/css">
	.st0{fill:#2E0638;}
	.st1{fill:#FFFFFF;stroke:#2D2D2D;stroke-width:0.2;stroke-miterlimit:10;}
	.st2{fill:#565656;}
	.st3{fill:#FFFFFF;}
	.st4{opacity:0.85;fill:#7CC9D6;}
	.st5{fill:#834292;}
	.st6{fill:#F7CA00;}
	.st7{fill:#7CC9D6;}
</style>
<ellipse class="st0" cx="14.6" cy="16.5" rx="13.5" ry="12.9"/>
<g id="Calque_2_2_">
	<circle class="st1" cx="10.2" cy="9.9" r="4.3"/>
	<circle class="st2" cx="10.2" cy="9.9" r="2.4"/>
	<circle cx="10.2" cy="9.9" r="1.8"/>
	<circle class="st3" cx="8.6" cy="11.3" r="0.8"/>
</g>
<g id="Calque_2_1_">
	<circle class="st1" cx="20.2" cy="10.5" r="3.5"/>
	<circle class="st2" cx="20.2" cy="10.5" r="2"/>
	<circle cx="20.2" cy="10.5" r="1.5"/>
	<circle class="st3" cx="18.8" cy="11.6" r="0.6"/>
</g>
<path class="st4" d="M14.1,12.4c0,0-0.6-0.3-1.7,0.1S11.2,13,10.2,13c-1,0-2.8-0.9-3.1-0.1c-0.3,0.7,1.8,1.9,3.8,1.7
	c2.1-0.2,2-0.8,2.5-1.2C13.9,13.1,14.2,13.1,14.1,12.4z"/>
<path class="st4" d="M16.8,12.4c0,0,5.2-0.9,6.9,0.5c1.7,1.4-0.7,0.3-0.8,0.4c-0.2,0.2,0.6,0,0.5,0.3c-0.1,0.2-1.4,0.7-3.4,0.5
	s-2.7-0.8-3.2-0.8C16.3,13.3,16.2,12.4,16.8,12.4z"/>
<path class="st5" d="M13.1,17.9c0,0-1.3,1-0.7,2.2c0,0,0.1-1.7,1.4-2C13.8,18.1,13.4,17.8,13.1,17.9z"/>
<path class="st5" d="M19.7,17.1c0,0,1.5,0.7,1.1,2.1c0,0-0.5-1.6-1.8-1.8C19.1,17.4,19.4,17.1,19.7,17.1z"/>
<path class="st6" d="M8.8,16.3c0,0,0.3,1.9,1.6,1.5c1.3-0.3,1.3-1.9,1.3-1.9S9.4,15,8.8,16.3z"/>
<path class="st6" d="M12.2,16.3c0,0-0.4,1.7,1,1.8c1.4,0.1,1.7-1,1.7-1s-0.7,0.5-2.3-0.7C12.6,16.3,12.3,15.8,12.2,16.3z"/>
<path class="st6" d="M17.1,16.7c0,0,0.2,1.8,1.9,1.4c1.6-0.4,1.8-2,1.5-2.5C20.5,15.6,18.1,16.7,17.1,16.7z"/>
<path class="st6" d="M21.1,15.3c0,0-0.5,1.6,0.7,1.8c1.2,0.1,1.8-0.1,1.9-0.9C23.7,16.2,23.5,15.6,21.1,15.3z"/>
<path class="st5" d="M7.4,17.8c0,0,0.1-2.9,3.3-2.4s2.3,2.2,5.5,1.5c3.2-0.7,4.6-2.4,7.2-1.1c0,0,0.8,0.7,1.8-0.1
	c1-0.7,0.4,0.9-0.6,1.1c-1,0.2-2-1.7-3.5-1.1c-1.5,0.6-1.5,0.6-1.5,0.6s-4.4,1.5-6,0.7s-4-2.1-5.2-0.3C8.4,16.7,8.3,18,7.4,17.8z"/>
<path class="st7" d="M10.2,3.5c0,0,1.3-3.2,4.9-3.2C15.1,0.2,10.7-1.3,10.2,3.5z"/>
<path class="st7" d="M21.6,5.5c0,0-1.3-3.2-4.9-3.2C16.7,2.2,21.1,0.7,21.6,5.5z"/>
<path class="st3" d="M13.2,12.6c-0.5,0-1.4,0.5-0.7,0.5c0.7,0,1.1-0.3,1-0.4S13.2,12.6,13.2,12.6z"/>
<path class="st3" d="M18,12.3c-0.6-0.2-1.8,0-1,0.3c0.8,0.3,1.4,0,1.3-0.1C18.3,12.5,18,12.3,18,12.3z"/>
<path class="st3" d="M23,12.7c-0.3-0.1-0.9,0-0.5,0.1c0.4,0.2,0.7,0,0.7,0S23,12.7,23,12.7z"/>
<path class="st3" d="M11.8,13.7c0,0-0.4-0.1-0.2-0.1C11.7,13.6,12,13.6,11.8,13.7z"/>
<path class="st4" d="M21.3,14.2c0,0,1.1,0.5,1.4,0.4S22.1,14.1,21.3,14.2z"/>
</svg>
