<?xml version="1.0" encoding="utf-8"?>
<!-- Generator: Adobe Illustrator 25.2.1, SVG Export Plug-In . SVG Version: 6.00 Build 0)  -->
<svg version="1.1" xmlns="http://www.w3.org/2000/svg" xmlns:xlink="http://www.w3.org/1999/xlink" x="0px" y="0px"
	 viewBox="0 0 512 512" style="enable-background:new 0 0 512 512;" xml:space="preserve" height="35px" width="35px">
<style type="text/css">
	.st0{display:none;}
	.st1{display:inline;}
	.st2{fill:#2E0638;}
	.st3{fill:#FFFFFF;}
	.st4{fill:#FFFFFF;stroke:#2D2D2D;stroke-miterlimit:10;}
	.st5{fill:#565656;}
	.st6{fill:#7CCAD7;}
	.st7{fill:none;}
</style>
<g id="Capa_1" class="st0">
	<g class="st1">
		<path d="M400.2,158.4H163.4l106-106c5.9-5.9,5.9-15.4,0-21.2L242.6,4.3c-13.7-13.7-35.8-13.7-49.5,0l-27.6,27.6l-14.1-14.1
			c-15.6-15.6-41-15.6-56.6,0L39.6,72.9c-15.6,15.6-15.6,41,0,56.6l14.1,14.1l-27.6,27.6c-13.7,13.7-13.7,35.8,0,49.5l26.9,26.9
			c5.9,5.9,15.4,5.9,21.2,0l38-38V441c0,35.9,29.1,65,65,65h158c35.9,0,65-29.1,65-65L400.2,158.4z M74.9,122.4l-14.1-14.1
			c-3.9-3.9-3.9-10.2,0-14.1L115.9,39c3.9-3.9,10.2-3.9,14.1,0l14.1,14.1L74.9,122.4z M204.4,422c0,8.3-6.7,15-15,15s-15-6.7-15-15
			V242.4c0-8.3,6.7-15,15-15s15,6.7,15,15V422z M271.2,422c0,8.3-6.7,15-15,15c-8.3,0-15-6.7-15-15V242.4c0-8.3,6.7-15,15-15
			c8.3,0,15,6.7,15,15V422z M337.9,422c0,8.3-6.7,15-15,15c-8.3,0-15-6.7-15-15V242.4c0-8.3,6.7-15,15-15c8.3,0,15,6.7,15,15V422z"
			/>
		<path d="M272.9,107.5c-9.2,3.2-15.6,11.4-16.6,20.8h143.9v-24.9c0-17.1-16.8-29.2-33-23.7l-94,27.7
			C273.1,107.5,273,107.5,272.9,107.5L272.9,107.5z"/>
	</g>
</g>
<g id="Calque_2">
	<g>
		<path class="st2" d="M342.6,161.3c0,0,31.2-4.7,43.3-22.5s12.1-17.8,12.1-17.8s-11.8,13.3-23.7,15.2s-23.1,19.4-23.1,19.4"/>
		<g>
			<path class="st3" d="M346,158.7c2-0.5,4-1.1,6-1.9c1.9-0.7,3.9-1.6,5.7-2.5c3.7-1.8,7.3-4,10.6-6.5c3.4-2.4,6.3-5.4,9.5-8.1
				l4.7-4.2c1.6-1.4,3.2-2.7,4.8-4.1c-1.5,1.5-3,3-4.4,4.4l-4.5,4.4c-3,2.9-6,5.8-9.4,8.4c-3.4,2.5-7,4.7-10.9,6.4
				C354.2,156.7,350.2,158.1,346,158.7z"/>
		</g>
		<g>
			<path class="st3" d="M371.9,145.6c0.3-1.1,0.7-2.2,1.1-3.3c0.5-1.1,1-2.1,1.5-3.1l0,0l0,0c0.7-0.9,1.4-1.8,2.3-2.6
				c-0.4,1.1-0.9,2.1-1.5,3.1l0,0c-0.5,1.1-1,2.1-1.5,3.1C373.3,143.7,372.7,144.7,371.9,145.6z"/>
		</g>
		<g>
			<path class="st3" d="M359.2,153.9c0.3-1.1,0.7-2.2,1.1-3.3c0.5-1.1,1-2.1,1.5-3.1l0,0l0,0c0.7-0.9,1.4-1.8,2.3-2.6
				c-0.4,1.1-0.9,2.1-1.5,3.1l0,0c-0.5,1.1-1,2.1-1.5,3.1C360.6,152,360,153,359.2,153.9z"/>
		</g>
		<g>
			<path class="st3" d="M365,150.7c1-0.6,2.1-1.1,3.1-1.5c1.1-0.4,2.2-0.8,3.3-1.1l-0.1,0c1.1-0.4,2.1-0.8,3.3-1.1
				c-0.9,0.7-1.9,1.3-2.9,1.9l0,0l-0.1,0c-1.1,0.4-2.2,0.8-3.3,1.1C367.3,150.4,366.2,150.6,365,150.7z"/>
		</g>
		<g>
			<path class="st3" d="M377.9,140.2c0.9-0.7,1.9-1.4,2.9-1.9c1-0.6,2-1.1,3.1-1.5l0,0c1-0.6,2-1.1,3.1-1.5
				c-0.8,0.9-1.7,1.6-2.6,2.3l0,0l0,0c-1,0.6-2,1.1-3.1,1.5C380.1,139.5,379,139.9,377.9,140.2z"/>
		</g>
	</g>
	<g>
		<path class="st2" d="M347.9,153c0,0-3.1-22.3,6.7-34.2s9.7-11.9,9.7-11.9s-6.7,10.7-5.6,19.3s-8.7,19.7-8.7,19.7"/>
		<g>
			<path class="st3" d="M349,150.2c-0.5-3-0.4-6,0-9c0.4-3,1.1-5.9,2.2-8.8c1-2.8,2.5-5.5,3.9-8.1l2.1-3.9c0.7-1.3,1.4-2.6,2.2-3.9
				c-0.6,1.4-1.2,2.7-1.8,4.1l-1.9,4.1c-1.2,2.7-2.6,5.3-3.6,8.1c-1,2.8-1.8,5.6-2.3,8.5c-0.3,1.5-0.5,2.9-0.6,4.4
				C349,147.2,348.9,148.7,349,150.2z"/>
		</g>
		<g>
			<path class="st3" d="M352.7,129.8c0.4-0.8,0.9-1.4,1.5-2c0.6-0.6,1.2-1.2,1.8-1.7l0,0c0.6-0.6,1.2-1.1,1.9-1.6
				c-0.3,0.8-0.8,1.5-1.2,2.2l0,0c-0.6,0.6-1.2,1.2-1.8,1.7C354.2,129,353.5,129.4,352.7,129.8z"/>
		</g>
		<g>
			<path class="st3" d="M349.6,140.2c0.4-0.8,0.9-1.4,1.5-2c0.6-0.6,1.2-1.2,1.8-1.7l0,0c0.6-0.6,1.2-1.1,1.9-1.6
				c-0.3,0.8-0.8,1.5-1.2,2.2l0,0c-0.6,0.6-1.2,1.2-1.8,1.7C351.1,139.3,350.4,139.8,349.6,140.2z"/>
		</g>
		<g>
			<path class="st3" d="M350.6,135.5c-0.2-0.8-0.3-1.6-0.4-2.5c0-0.8,0-1.6,0.1-2.5l0-0.1c0.2-0.8,0.4-1.6,0.8-2.3
				c0.1,0.8,0.1,1.7,0.1,2.5l0-0.1c0,0.8,0,1.6-0.1,2.5C351,133.9,350.9,134.7,350.6,135.5z"/>
		</g>
		<g>
			<path class="st3" d="M355.2,124.6c-0.1-0.9-0.1-1.7,0-2.5c0.1-0.8,0.2-1.6,0.4-2.4l0-0.1c0.3-0.8,0.6-1.5,1.1-2.2
				c0,0.9-0.1,1.7-0.3,2.5l0-0.1c-0.1,0.8-0.2,1.6-0.4,2.4C355.9,123.1,355.6,123.9,355.2,124.6z"/>
		</g>
	</g>
	<g>
		<path class="st2" d="M240.6,142.8c0,0,17.6-14.1,32.7-11.9c15.2,2.2,15.2,2.2,15.2,2.2s-12.7-0.2-19.4,5.1
			c-6.8,5.3-21.3,2.7-21.3,2.7"/>
		<g>
			<path class="st3" d="M243.6,142.2c2.3-1.9,4.9-3.4,7.7-4.6c2.8-1.2,5.7-2.1,8.6-2.7c3-0.6,6-0.7,8.9-0.9l4.5-0.2
				c1.5,0,3-0.1,4.5-0.1c-1.5,0.2-3,0.4-4.4,0.6l-4.4,0.5c-3,0.4-5.9,0.5-8.8,1.1c-2.9,0.5-5.7,1.4-8.5,2.4
				c-1.4,0.5-2.7,1.1-4.1,1.8C246.1,140.7,244.8,141.4,243.6,142.2z"/>
		</g>
		<g>
			<path class="st3" d="M263,135c0.9,0,1.7,0.1,2.5,0.3c0.8,0.2,1.6,0.4,2.4,0.7l-0.1,0c0.8,0.2,1.6,0.4,2.3,0.8
				c-0.8,0.1-1.7,0.1-2.5,0.1l-0.1,0c-0.8-0.2-1.6-0.4-2.4-0.7C264.4,135.8,263.7,135.5,263,135z"/>
		</g>
		<g>
			<path class="st3" d="M252.5,137.6c0.9,0,1.7,0.1,2.5,0.3c0.8,0.2,1.6,0.4,2.4,0.7l-0.1,0c0.8,0.2,1.6,0.4,2.3,0.8
				c-0.8,0.1-1.7,0.1-2.5,0.1l-0.1,0c-0.8-0.2-1.6-0.4-2.4-0.7C253.9,138.5,253.2,138.1,252.5,137.6z"/>
		</g>
		<g>
			<path class="st3" d="M256.9,136.1c0.6-0.6,1.2-1.1,1.9-1.6c0.7-0.5,1.4-0.9,2.1-1.2l0.1,0c0.8-0.2,1.6-0.4,2.4-0.5
				c-0.7,0.6-1.4,1-2.1,1.3l0.1,0c-0.7,0.5-1.4,0.9-2.1,1.2C258.5,135.6,257.8,135.9,256.9,136.1z"/>
		</g>
		<g>
			<path class="st3" d="M268.7,134.4c0.7-0.6,1.4-1,2.1-1.3c0.7-0.4,1.5-0.7,2.3-0.9l0.1,0c0.8-0.1,1.6-0.2,2.5-0.2
				c-0.7,0.5-1.5,0.8-2.3,1l0.1,0c-0.7,0.4-1.5,0.7-2.3,0.9C270.3,134.2,269.5,134.4,268.7,134.4z"/>
		</g>
	</g>
	<g>
		<path class="st2" d="M338.2,113c0,0,4.3-10.3,11.4-13c7.1-2.6,7.1-2.6,7.1-2.6s-5.6,2.9-7.3,6.8c-1.7,3.9-8.7,6.3-8.7,6.3"/>
		<g>
			<path class="st3" d="M339.3,112.1c1.2-2.7,3.2-5.1,5.4-7c1.2-0.9,2.4-1.7,3.7-2.5c1.2-0.8,2.5-1.6,3.8-2.3
				c-1.2,0.9-2.4,1.7-3.6,2.5c-1.2,0.8-2.5,1.6-3.6,2.6c-1.1,0.9-2.2,2-3.1,3.1C340.9,109.6,340,110.8,339.3,112.1z"/>
		</g>
		<g>
			<path class="st3" d="M346.1,104.3c0.4-0.2,0.8-0.3,1.2-0.4c0.4-0.1,0.8-0.2,1.2-0.3l0,0c0.4-0.1,0.8-0.2,1.2-0.3
				c-0.4,0.2-0.7,0.4-1.1,0.5l0,0l0,0c-0.4,0.1-0.8,0.2-1.2,0.3C346.9,104.3,346.5,104.3,346.1,104.3z"/>
		</g>
		<g>
			<path class="st3" d="M342.1,108c0.4-0.2,0.8-0.3,1.2-0.4c0.4-0.1,0.8-0.2,1.2-0.3l0,0c0.4-0.1,0.8-0.2,1.2-0.3
				c-0.4,0.2-0.7,0.4-1.1,0.5l0,0l0,0c-0.4,0.1-0.8,0.2-1.2,0.3C342.9,107.9,342.5,108,342.1,108z"/>
		</g>
		<g>
			<path class="st3" d="M343.7,106.2c0.2-0.4,0.3-0.8,0.5-1.1c0.2-0.4,0.4-0.7,0.6-1l0,0l0,0c0.3-0.3,0.6-0.6,0.9-0.9
				c-0.2,0.4-0.4,0.7-0.7,1l0,0c-0.2,0.4-0.4,0.7-0.6,1C344.2,105.6,344,105.9,343.7,106.2z"/>
		</g>
		<g>
			<path class="st3" d="M348.4,102.7c0.2-0.4,0.4-0.7,0.7-1c0.2-0.3,0.5-0.6,0.8-0.9l0,0l0,0c0.3-0.3,0.6-0.5,1-0.7
				c-0.2,0.3-0.5,0.6-0.8,0.9l0,0c-0.2,0.3-0.5,0.6-0.8,0.9C349,102.2,348.7,102.5,348.4,102.7z"/>
		</g>
	</g>
	<g>
		<path class="st2" d="M394.4,102.7c0,0,4.3-10.3,11.4-13s7.1-2.6,7.1-2.6s-5.6,2.9-7.3,6.8c-1.7,3.9-8.7,6.3-8.7,6.3"/>
		<g>
			<path class="st3" d="M395.5,101.8c1.2-2.7,3.2-5.1,5.4-7c1.2-0.9,2.4-1.7,3.7-2.5c1.2-0.8,2.5-1.6,3.8-2.3
				c-1.2,0.9-2.4,1.7-3.6,2.5c-1.2,0.8-2.5,1.6-3.6,2.6c-1.1,0.9-2.2,2-3.1,3.1C397.1,99.3,396.2,100.5,395.5,101.8z"/>
		</g>
		<g>
			<path class="st3" d="M402.3,94c0.4-0.2,0.8-0.3,1.2-0.4c0.4-0.1,0.8-0.2,1.2-0.3l0,0c0.4-0.1,0.8-0.2,1.2-0.3
				c-0.4,0.2-0.7,0.4-1.1,0.5l0,0l0,0c-0.4,0.1-0.8,0.2-1.2,0.3C403.1,94,402.7,94,402.3,94z"/>
		</g>
		<g>
			<path class="st3" d="M398.3,97.7c0.4-0.2,0.8-0.3,1.2-0.4c0.4-0.1,0.8-0.2,1.2-0.3l0,0c0.4-0.1,0.8-0.2,1.2-0.3
				c-0.4,0.2-0.7,0.4-1.1,0.5l0,0l0,0c-0.4,0.1-0.8,0.2-1.2,0.3C399.1,97.6,398.7,97.7,398.3,97.7z"/>
		</g>
		<g>
			<path class="st3" d="M399.9,95.9c0.2-0.4,0.3-0.8,0.5-1.1c0.2-0.4,0.4-0.7,0.6-1l0,0l0,0c0.3-0.3,0.6-0.6,0.9-0.9
				c-0.2,0.4-0.4,0.7-0.7,1l0,0c-0.2,0.4-0.4,0.7-0.6,1C400.4,95.3,400.2,95.6,399.9,95.9z"/>
		</g>
		<g>
			<path class="st3" d="M404.6,92.4c0.2-0.4,0.4-0.7,0.7-1c0.2-0.3,0.5-0.6,0.8-0.9l0,0l0,0c0.3-0.3,0.6-0.5,1-0.7
				c-0.2,0.3-0.5,0.6-0.8,0.9l0,0c-0.2,0.3-0.5,0.6-0.8,0.9C405.2,91.9,404.9,92.2,404.6,92.4z"/>
		</g>
	</g>
	<g>
		<path class="st2" d="M292.4,154.1c0,0,14.7-12.8,15.1-26.1c0.4-13.3,0.4-13.3,0.4-13.3s-1.7,10.8-7.3,15.8
			c-5.5,5-5.5,17.8-5.5,17.8"/>
		<g>
			<path class="st3" d="M293.3,151.7c0.9-1,1.7-2,2.4-3c0.8-1,1.5-2.1,2.1-3.2c1.3-2.2,2.4-4.5,3.3-6.9c0.9-2.4,1.5-4.9,2.3-7.3
				l1.1-3.7c0.4-1.2,0.8-2.5,1.2-3.7c-0.2,1.3-0.5,2.5-0.7,3.8l-0.8,3.8c-0.6,2.5-1.1,5-2.1,7.5c-0.9,2.4-2.1,4.8-3.6,6.9
				C297,148,295.3,150,293.3,151.7z"/>
		</g>
		<g>
			<path class="st3" d="M302.4,136.2c-0.3-0.7-0.5-1.4-0.7-2.1c-0.1-0.7-0.2-1.4-0.2-2.1l0-0.1c0.1-0.7,0.2-1.4,0.5-2.1
				c0.3,0.7,0.4,1.4,0.4,2.1l0-0.1c0.1,0.7,0.2,1.4,0.2,2.1C302.6,134.8,302.6,135.5,302.4,136.2z"/>
		</g>
		<g>
			<path class="st3" d="M298.6,144.8c-0.3-0.7-0.5-1.4-0.7-2.1c-0.1-0.7-0.2-1.4-0.2-2.1l0-0.1c0.1-0.7,0.2-1.4,0.5-2.1
				c0.3,0.7,0.4,1.4,0.4,2.1l0-0.1c0.1,0.7,0.2,1.4,0.2,2.1C298.8,143.3,298.8,144,298.6,144.8z"/>
		</g>
		<g>
			<path class="st3" d="M300.6,141.2c0.2-0.7,0.6-1.3,1-1.9c0.4-0.6,0.8-1.1,1.3-1.6l0,0c0.4-0.6,0.9-1.1,1.5-1.5
				c-0.1,0.7-0.4,1.4-0.7,2l0,0c-0.4,0.6-0.8,1.1-1.3,1.6C301.8,140.4,301.2,140.8,300.6,141.2z"/>
		</g>
		<g>
			<path class="st3" d="M303.7,131.5c0.1-0.7,0.4-1.4,0.7-2c0.3-0.6,0.7-1.2,1.1-1.8l0,0c0.4-0.6,0.7-1.2,1.3-1.7
				c0,0.8-0.2,1.4-0.5,2.1l0,0.1c-0.3,0.6-0.7,1.2-1.1,1.8C304.8,130.5,304.3,131,303.7,131.5z"/>
		</g>
	</g>
	<path class="st2" d="M400.2,158.4l-43.8,304.9c-3.4,23.6-23.4,41.2-47.2,41.7l-56.9,1l3.7-347.6H400.2z"/>
	<path class="st2" d="M112.3,158.4l43.9,305.1c3.4,23.5,23.3,41.1,47,41.5l53.1,1l0.3-347.6H112.3z"/>
	<circle class="st4" cx="297.9" cy="294.6" r="31.4"/>
	<circle class="st5" cx="297.9" cy="294.6" r="17.6"/>
	<circle cx="297.9" cy="294.6" r="13.1"/>
	<circle class="st3" cx="286.1" cy="304.4" r="5.8"/>
	<circle class="st4" cx="215.2" cy="294.6" r="31.4"/>
	<circle class="st5" cx="215.2" cy="294.6" r="17.6"/>
	<circle cx="215.2" cy="294.6" r="13.1"/>
	<circle class="st3" cx="203.4" cy="304.4" r="5.8"/>
	<g>
		<path class="st3" d="M279.9,352.7c-4.1-10.9-23.6-9.4-31.7-8.2c-2.4,0.3-4.2,2.5-3.9,4.9c0.3,2,2,3.6,7.9,4.3
			c2.1,0.2,4.7,1.1,7.6,2.1c0,0,0,0,0,0C266.4,351,275.1,351.8,279.9,352.7z"/>
		<path class="st6" d="M280.3,353.8c-0.1-0.4-0.2-0.7-0.3-1c-4.8-0.9-13.5-1.7-20.1,3.1c0,0,0,0,0,0
			C270.3,359.5,283.5,365.7,280.3,353.8z"/>
	</g>
	<g>
		<path class="st6" d="M204.7,251.5c0.4-2.1,1.2-4.2,2.1-6.1l0.8-1.4l0.9-1.4c0.5-1,1.2-1.8,1.9-2.7c2.7-3.5,6-6.4,9.5-8.9l2.7-1.8
			c0.9-0.5,1.9-1,2.9-1.6l1.4-0.8c0.5-0.2,1-0.4,1.5-0.7c1-0.4,2-0.8,3-1.3c2-0.8,4.1-1.3,6.2-2c2.1-0.5,4.2-0.9,6.3-1.3
			c-2,0.8-4,1.5-6,2.2l-2.9,1.2c-1,0.4-2,0.8-2.9,1.3c-0.9,0.5-1.9,0.9-2.8,1.4c-0.5,0.2-1,0.4-1.4,0.7l-1.4,0.8
			c-0.9,0.5-1.8,1-2.7,1.6l-2.6,1.8c-3.4,2.4-6.7,5.1-9.5,8.2C208.7,244.1,206.3,247.6,204.7,251.5z"/>
	</g>
	<g>
		<path class="st6" d="M312.4,251.5c-1.6-4-4.1-7.5-6.8-10.6c-2.8-3.1-6-5.9-9.5-8.2l-2.6-1.8c-0.9-0.5-1.8-1-2.7-1.6l-1.4-0.8
			c-0.5-0.3-0.9-0.5-1.4-0.7c-1-0.5-1.9-0.9-2.8-1.4c-0.9-0.5-2-0.8-2.9-1.3l-2.9-1.2c-2-0.7-4-1.4-6-2.2c2.1,0.4,4.2,0.8,6.3,1.3
			c2,0.6,4.1,1.2,6.2,2c1,0.4,2,0.8,3,1.3c0.5,0.2,1,0.4,1.5,0.7l1.4,0.8c1,0.5,1.9,1,2.9,1.6l2.7,1.8c3.6,2.5,6.9,5.4,9.5,8.9
			c0.6,0.9,1.3,1.7,1.9,2.7l0.9,1.4l0.8,1.4C311.3,247.4,312.1,249.4,312.4,251.5z"/>
	</g>
	<g>
		<path class="st7" d="M240.9,76l-7.4-20.3c-1.1-2.9-4.3-4.4-7.2-3.3l-78,28.6c-2.9,1.1-4.4,4.3-3.3,7.2l7.2,19.5
			c0.3,0.7,0.4,1.5,0.3,2.2l89.2-32.6C241.2,76.9,241,76.5,240.9,76z"/>
		<path class="st6" d="M318.2,49.2l-53.4,19.5c0-0.5-0.1-0.9-0.3-1.4L248,22.3c-1.1-2.9-4.3-4.4-7.2-3.3l-0.3-0.7l-107,39.2
			l-18.3,6.7l-0.1,0c-2.9,1.1-4.4,4.3-3.3,7.2l16.5,45.1c0.3,0.7,0.7,1.4,1.2,1.9l-53.4,19.5c-7.8,2.8-10.2,15.8-5.4,29l6.2,17.1
			c1.4,3.7,5.5,5.6,9.2,4.3l256.8-94c3.7-1.4,5.6-5.5,4.3-9.2l-6.2-17.1C336.2,54.7,326,46.3,318.2,49.2z M152,107.7l-7.2-19.5
			c-1.1-2.9,0.4-6.1,3.3-7.2l78-28.6c2.9-1.1,6.1,0.4,7.2,3.3l7.4,20.3c0.2,0.5,0.4,0.9,0.7,1.3l-89.2,32.6
			C152.4,109.2,152.3,108.4,152,107.7z"/>
	</g>
</g>
</svg>
