<?xml version="1.0" encoding="utf-8"?>
<!-- Generator: Adobe Illustrator 25.2.1, SVG Export Plug-In . SVG Version: 6.00 Build 0)  -->
<svg version="1.1" xmlns="http://www.w3.org/2000/svg" xmlns:xlink="http://www.w3.org/1999/xlink" x="0px" y="0px"
	 viewBox="0 0 512 512" style="enable-background:new 0 0 512 512;" xml:space="preserve" height="35px" width="35px">
<style type="text/css">
	.st0{display:none;}
	.st1{display:inline;}
	.st2{fill:#2E0638;}
	.st3{fill:#FFFFFF;stroke:#2D2D2D;stroke-miterlimit:10;}
	.st4{fill:#565656;}
	.st5{fill:#FFFFFF;}
	.st6{fill:#7CCAD7;}
	.st7{fill:#FFFFFF;stroke:#2E0638;stroke-width:14;stroke-miterlimit:10;}
</style>
<g id="Capa_1" class="st0">
	<g class="st1">
		<g>
			<path d="M386.7,304.4c-35.6,0-64.5,29-64.5,64.5s29,64.5,64.5,64.5c35.6,0,64.5-29,64.5-64.5S422.3,304.4,386.7,304.4z
				 M386.7,401.2c-17.8,0-32.3-14.5-32.3-32.3c0-17.8,14.5-32.3,32.3-32.3c17.8,0,32.3,14.5,32.3,32.3
				C419,386.7,404.5,401.2,386.7,401.2z"/>
		</g>
	</g>
	<g class="st1">
		<g>
			<path d="M166.2,304.4c-35.6,0-64.5,29-64.5,64.5s29,64.5,64.5,64.5s64.5-29,64.5-64.5S201.8,304.4,166.2,304.4z M166.2,401.2
				c-17.8,0-32.3-14.5-32.3-32.3c0-17.8,14.5-32.3,32.3-32.3c17.8,0,32.3,14.5,32.3,32.3C198.5,386.7,184,401.2,166.2,401.2z"/>
		</g>
	</g>
	<g class="st1">
		<g>
			<path d="M430.1,119.7c-2.7-5.4-8.3-8.9-14.4-8.9h-85v32.3h75l43.9,87.4l28.8-14.5L430.1,119.7z"/>
		</g>
	</g>
	<g class="st1">
		<g>
			<rect x="216.2" y="353.3" width="122.1" height="32.3"/>
		</g>
	</g>
	<g class="st1">
		<g>
			<path d="M117.8,353.3H61.8c-8.9,0-16.1,7.2-16.1,16.1c0,8.9,7.2,16.1,16.1,16.1h55.9c8.9,0,16.1-7.2,16.1-16.1
				C133.9,360.6,126.7,353.3,117.8,353.3z"/>
		</g>
	</g>
	<g class="st1">
		<g>
			<path d="M508.6,254.7l-31.7-40.9c-3-3.9-7.8-6.2-12.7-6.2H346.9V94.7c0-8.9-7.2-16.1-16.1-16.1H61.8c-8.9,0-16.1,7.2-16.1,16.1
				s7.2,16.1,16.1,16.1h252.8v112.9c0,8.9,7.2,16.1,16.1,16.1h125.5l23.5,30.3v83.2h-44.6c-8.9,0-16.1,7.2-16.1,16.1
				c0,8.9,7.2,16.1,16.1,16.1h60.8c8.9,0,16.1-7.2,16.1-16.1V264.6C512,261,510.8,257.5,508.6,254.7z"/>
		</g>
	</g>
	<g class="st1">
		<g>
			<path d="M116.7,271.6H42.5c-8.9,0-16.1,7.2-16.1,16.1c0,8.9,7.2,16.1,16.1,16.1h74.2c8.9,0,16.1-7.2,16.1-16.1
				C132.8,278.8,125.6,271.6,116.7,271.6z"/>
		</g>
	</g>
	<g class="st1">
		<g>
			<path d="M153.8,208.1H16.1c-8.9,0-16.1,7.2-16.1,16.1s7.2,16.1,16.1,16.1h137.7c8.9,0,16.1-7.2,16.1-16.1
				S162.7,208.1,153.8,208.1z"/>
		</g>
	</g>
	<g class="st1">
		<g>
			<path d="M180.2,144.7H42.5c-8.9,0-16.1,7.2-16.1,16.1c0,8.9,7.2,16.1,16.1,16.1h137.7c8.9,0,16.1-7.2,16.1-16.1
				C196.3,151.9,189.1,144.7,180.2,144.7z"/>
		</g>
	</g>
</g>
<g id="Calque_2">
	<path class="st2" d="M452.2,211.2l34.4,48.5c2.4,3.4,3.7,7.4,3.7,11.6v97.4c0,6.4-2.8,12.5-7.7,16.6l0,0c-3.9,3.3-8.8,5-13.9,5
		H42.1c-3.7,0-7.3-1-10.3-3.1c-4.5-3.2-8.8-9.5-4.6-21.6c5.7-16.3,6.5-59.5,6.5-79.2c0-5.5,4.5-10,10-10h36.8V83.3h234.1
		c5.2,0,9.5,4.1,9.8,9.3l1.3,23l63.4,0.3c5.4,0,10.3,2.9,13,7.6L452.2,211.2z"/>
	<g>
		<path class="st3" d="M435.3,174.2c0-14.8,11.6-27,26.3-27.7c-9.5-16.2-27.1-27.1-47.3-27.1c-30.3,0-54.8,24.5-54.8,54.8
			c0,30.3,24.5,54.8,54.8,54.8c20.1,0,37.7-10.9,47.3-27.1C446.9,201.2,435.3,189.1,435.3,174.2z"/>
		<path class="st4" d="M461.6,146.5c-14.6,0.8-26.3,12.9-26.3,27.7s11.6,27,26.3,27.7c4.8-8.1,7.5-17.6,7.5-27.7
			C469.1,164.1,466.3,154.6,461.6,146.5z"/>
		<path d="M464.3,152.7c-11.9,0.6-23,10.5-23,21.5s11.4,20.4,23.3,21c4-9.4,4.6-13.5,4.6-21C469.1,166.7,468.2,158.7,464.3,152.7z"
			/>
	</g>
	<circle class="st5" cx="452.2" cy="198.2" r="9.4"/>
	<g>
		<path class="st6" d="M446.9,301.3c3.3,2.3,6.6,4.5,10,6.6c1.7,1,3.4,2,5.2,2.9c1.8,0.9,3.5,1.8,5.3,2.6c3.6,1.6,7.4,2.8,11.2,3.3
			c3.9,0.5,7.9,0.1,11.5-1.5c-3.3,2.4-7.6,3.4-11.7,3.1c-2.1-0.1-4.1-0.5-6.1-1c-2-0.6-3.9-1.3-5.8-2.1c-3.7-1.7-7.3-3.7-10.6-6.1
			C452.8,306.8,449.7,304.2,446.9,301.3z"/>
	</g>
	<ellipse class="st7" cx="145.1" cy="385.5" rx="56.7" ry="52.7"/>
	<ellipse class="st7" cx="365.6" cy="385.5" rx="56.7" ry="52.7"/>
	<g>
		<path class="st6" d="M94.9,122c0,0-43-31.6-47.1-67.7s-4.1-36.1-4.1-36.1s7.2,29.1,23.4,41.3s19.2,47.2,19.2,47.2"/>
		<g>
			<path class="st5" d="M91.8,115.5c-5.6-4.3-10.5-9.5-14.8-15.1c-4.3-5.6-8-11.7-11.1-18.1l-2.1-4.9l-1.9-5
				c-1.2-3.3-2.4-6.6-3.5-10l-3.4-10c-1.1-3.4-2.2-6.7-3.3-10.1c1.3,3.3,2.5,6.6,3.8,9.9l3.7,9.9c2.5,6.6,4.6,13.3,7.7,19.6
				c3,6.4,6.7,12.4,10.8,18c2.1,2.8,4.3,5.6,6.7,8.2C86.6,110.7,89.1,113.2,91.8,115.5z"/>
		</g>
		<g>
			<path class="st5" d="M63.5,75.5c-0.2-1.9-0.3-3.9-0.3-5.8c0-1.9,0-3.9,0.1-5.8l0,0.1c-0.1-1.9-0.2-3.9-0.1-5.8
				c0.5,1.9,0.8,3.8,1,5.7l0,0l0,0c0,1.9,0,3.9-0.1,5.8C63.9,71.7,63.8,73.6,63.5,75.5z"/>
		</g>
		<g>
			<path class="st5" d="M75.9,98c-0.2-1.9-0.3-3.9-0.3-5.8c0-1.9,0-3.9,0.1-5.8l0,0.1c-0.1-1.9-0.2-3.9-0.1-5.8
				c0.5,1.9,0.8,3.8,1,5.7l0,0l0,0c0,1.9,0,3.9-0.1,5.8C76.4,94.1,76.2,96,75.9,98z"/>
		</g>
		<g>
			<path class="st5" d="M69.7,88.7c-1.5-1.2-3-2.5-4.4-3.9c-1.4-1.3-2.8-2.7-4.1-4.2l0,0l0,0c-1.1-1.6-2.2-3.2-3.1-4.9
				c1.4,1.4,2.6,2.8,3.8,4.3l0,0c1.4,1.3,2.8,2.7,4.1,4.2C67.2,85.6,68.5,87.1,69.7,88.7z"/>
		</g>
		<g>
			<path class="st5" d="M58.8,62.8c-1.4-1.4-2.6-2.9-3.8-4.4c-1.2-1.5-2.3-3.1-3.4-4.7l0,0l0,0c-0.9-1.7-1.7-3.5-2.4-5.3
				c1.2,1.6,2.2,3.2,3.2,4.8l0,0c1.2,1.5,2.3,3.1,3.4,4.7C56.8,59.5,57.8,61.1,58.8,62.8z"/>
		</g>
	</g>
	<g>
		<path class="st6" d="M92.8,123.4c0,0,28-45.4,18.3-80.4s-9.7-35-9.7-35s4.3,29.7-6.2,47.1S95,106,95,106"/>
		<g>
			<path class="st5" d="M93.2,116.2c1.7-3.1,3-6.4,4.2-9.7c1.2-3.3,2.3-6.7,3.1-10.1c1.7-6.8,2.9-13.8,3.3-20.8c0.5-7,0-14-0.2-21.1
				L103.3,44c-0.1-3.5-0.2-7.1-0.2-10.6c0.3,3.5,0.5,7,0.7,10.6l0.6,10.6c0.2,3.5,0.4,7,0.5,10.6l0.1,5.3l-0.2,5.3
				c-0.5,7.1-1.6,14.1-3.5,20.9C99.4,103.5,96.8,110.1,93.2,116.2z"/>
		</g>
		<g>
			<path class="st5" d="M104.5,68.5c-1-1.7-1.9-3.4-2.7-5.2c-0.8-1.8-1.6-3.5-2.3-5.3l0,0l0,0c-0.5-1.9-0.9-3.8-1.2-5.7
				c0.8,1.8,1.4,3.6,2,5.4l0-0.1c0.8,1.8,1.6,3.5,2.3,5.3C103.3,64.8,104,66.6,104.5,68.5z"/>
		</g>
		<g>
			<path class="st5" d="M101.4,94c-1-1.7-1.9-3.4-2.7-5.2c-0.8-1.8-1.6-3.5-2.3-5.3l0,0l0,0c-0.5-1.9-0.9-3.8-1.2-5.7
				c0.8,1.8,1.4,3.6,2,5.4l0-0.1c0.8,1.8,1.6,3.5,2.3,5.3C100.2,90.3,100.8,92.1,101.4,94z"/>
		</g>
		<g>
			<path class="st5" d="M103.7,83c0.5-1.9,1.1-3.7,1.8-5.6c0.7-1.8,1.4-3.6,2.2-5.4l0,0.1c0.6-1.8,1.2-3.7,1.9-5.5
				c-0.2,1.9-0.6,3.8-1.1,5.7l0,0l0,0c-0.7,1.8-1.4,3.6-2.2,5.4C105.5,79.6,104.7,81.3,103.7,83z"/>
		</g>
		<g>
			<path class="st5" d="M104.1,55c0.2-1.9,0.6-3.9,1-5.7c0.4-1.9,0.9-3.8,1.4-5.6l0,0.1c0.3-1.9,0.7-3.8,1.2-5.7
				c0,1.9-0.1,3.9-0.3,5.8l0,0l0,0c-0.4,1.9-0.9,3.8-1.4,5.6C105.4,51.3,104.8,53.2,104.1,55z"/>
		</g>
	</g>
	<path class="st2" d="M85.8,261.9H52.8c-5,0-9.1-4.1-9.1-9.1v0c0-5,4.1-9.1,9.1-9.1h33.1c5,0,9.1,4.1,9.1,9.1v0
		C94.9,257.9,90.8,261.9,85.8,261.9z"/>
	<path class="st2" d="M107,230H73.9c-5,0-9.1-4.1-9.1-9.1v0c0-5,4.1-9.1,9.1-9.1H107c5,0,9.1,4.1,9.1,9.1v0
		C116.1,226,112,230,107,230z"/>
</g>
</svg>
