<?xml version="1.0" encoding="utf-8"?>
<!-- Generator: Adobe Illustrator 25.2.1, SVG Export Plug-In . SVG Version: 6.00 Build 0)  -->
<svg version="1.1" xmlns="http://www.w3.org/2000/svg" xmlns:xlink="http://www.w3.org/1999/xlink" x="0px" y="0px"
	 viewBox="0 0 384 384" style="enable-background:new 0 0 384 384;" xml:space="preserve" width="55px" height="55px">
<g id="Calque_2">
	<g>
		<path class="st1" fill="#333" d="M265.6,174c2.7,8,12,4.7,15.9,13.8c-8.4-1.4-15.4-4-24.1-5.8c-13.9-2.9-62-10.6-74.9-10.5
			c-24.1,0-50.4,7.3-73.2,12.2c-5.7,1.2-12,2.1-17,4.4l-28.6,14c-5.2,2.9-11.3,4.2-11.3,10.9c3.5,2.9,8.3,2.3,12.3-1.6
			c4.8-4.6-0.3-5,9.8-9.1c8.4-3.5,17.9-9.3,26.5-11.6c28-7.6,70.1-16.2,99.6-12.3c26.6,3.5,54.3,6.7,80.1,14.5
			c2.9,0.9,4.6,1.3,7.3,2.3c4.4,1.6,4.3,1.7,6.4,4.4c-4-0.2-43.9-3.8-35.9,5.3c3.9,2.1,11.3-0.1,16.4-0.3c7.3-0.3,11.2,0,17.9,0.7
			c6.1,0.6,12.2,0.7,17.7,1.9c10.6,2.3,18.1,9.4,21-2.2c-6.1-7.2-44.2-20.8-56.7-31.8C274,172.4,269.3,165.9,265.6,174z"/>
	</g>
</g>
</svg>
