<?xml version="1.0" encoding="utf-8"?>
<!-- Generator: Adobe Illustrator 25.2.1, SVG Export Plug-In . SVG Version: 6.00 Build 0)  -->
<svg version="1.1" xmlns="http://www.w3.org/2000/svg" xmlns:xlink="http://www.w3.org/1999/xlink" x="0px" y="0px"
	 viewBox="0 0 512 512" style="enable-background:new 0 0 512 512;" xml:space="preserve" height="35px" width="35px">
<style type="text/css">
	.st0{display:none;}
	.st1{display:inline;}
	.st2{fill:#2E0638;}
	.st3{fill:#FFFFFF;stroke:#232322;stroke-miterlimit:10;}
	.st4{fill:#232323;}
	.st5{fill:#FFFFFF;}
	.st6{fill:#7CCAD7;}
	.st7{fill:#232322;}
	.st8{fill:#5D3766;}
</style>
<g id="Capa_1" class="st0">
	<g class="st1">
		<g>
			<path d="M421.9,211.8v238.5h-90.1V347.2c0-9-7.3-16.4-16.4-16.4H200.3c-9,0-16.4,7.3-16.4,16.4v103.2H94.4V211.8H61.7v254.9
				c0,9,7.3,16.4,16.4,16.4h122.3c9,0,16.4-7.3,16.4-16.4V363.5h82.4v103.2c0,9,7.3,16.4,16.4,16.4h122.8c9,0,16.4-7.3,16.4-16.4
				V211.8H421.9z"/>
		</g>
	</g>
	<g class="st1">
		<g>
			<path d="M506.8,255.5L269.4,33.4c-6.2-5.9-16-5.9-22.3-0.1L5.3,255.4c-6.7,6.1-7.1,16.5-1,23.1c3.2,3.5,7.6,5.3,12.1,5.3
				c4,0,7.9-1.4,11.1-4.3L258.1,67.6l226.4,211.8c6.6,6.2,17,5.8,23.1-0.8C513.8,272,513.4,261.7,506.8,255.5z"/>
		</g>
	</g>
</g>
<g id="Calque_2">
	<path class="st2" d="M437.6,214.1L274.9,54.7c-9.4-9.2-24.3-9.3-33.8-0.4L79.8,204.5c-5,4.6-7.8,11.1-7.8,17.9v222.3
		c0,13.5,11,24.5,24.5,24.5h83.2c13.4,0,24.4-10.8,24.5-24.3l0.6-67.4c0.1-13.4,11-24.3,24.5-24.3h55.2c13.5,0,24.5,11,24.5,24.5v67
		c0,13.5,11,24.5,24.5,24.5h87c13.5,0,24.5-11,24.5-24.5V231.6C445,225,442.3,218.7,437.6,214.1z"/>
	<circle class="st3" cx="322" cy="240.8" r="48.5"/>
	<circle class="st4" cx="338.2" cy="250.5" r="21.2"/>
	<circle cx="338.6" cy="250.7" r="13.5"/>
	<circle class="st5" cx="317" cy="264.2" r="12.1"/>
	<circle class="st3" cx="191.6" cy="240.8" r="48.5"/>
	<circle class="st4" cx="207.8" cy="250.5" r="21.2"/>
	<circle cx="208.2" cy="250.8" r="13.5"/>
	<circle class="st5" cx="186.6" cy="264.2" r="12.1"/>
	<g>
		<path class="st6" d="M368,225.4c2.6-0.3,5.1-0.8,7.3-1.7c2.3-0.8,4.3-2,5.7-3.7c1.5-1.7,2.5-3.8,3.1-6.1c0.6-2.3,0.9-4.9,1.1-7.5
			c1,2.5,1.4,5.1,1.2,7.9c-0.2,2.7-1.2,5.6-3.2,7.7c-1.9,2.2-4.7,3.5-7.4,4C373.2,226.4,370.5,226.3,368,225.4z"/>
	</g>
	<g>
		<path class="st6" d="M369.8,231.4c2.6,0.6,5.1,0.9,7.5,0.9c2.4,0,4.7-0.5,6.7-1.5c2-1,3.6-2.7,5-4.7c1.4-2,2.5-4.3,3.6-6.6
			c0.1,2.6-0.4,5.3-1.6,7.8c-1.1,2.5-3,4.8-5.6,6.2c-2.6,1.4-5.6,1.7-8.3,1.2C374.4,234.1,371.8,233.1,369.8,231.4z"/>
	</g>
	<g>
		<path class="st6" d="M370.4,240.9c2.5,0.8,5,1.4,7.4,1.6c2.4,0.2,4.7-0.1,6.8-1c2.1-0.9,3.8-2.4,5.4-4.3c1.6-1.9,2.8-4,4.2-6.3
			c-0.2,2.6-0.9,5.2-2.2,7.6c-1.3,2.4-3.4,4.6-6.1,5.7c-2.7,1.2-5.7,1.2-8.3,0.5C374.7,244.1,372.2,242.8,370.4,240.9z"/>
	</g>
	<g>
		<path class="st6" d="M145.8,225.4c-2.5,0.9-5.2,1.1-7.9,0.6c-2.7-0.5-5.4-1.8-7.4-4c-2-2.2-3-5-3.2-7.7c-0.2-2.7,0.2-5.4,1.2-7.9
			c0.3,2.6,0.5,5.1,1.1,7.5c0.6,2.3,1.6,4.5,3.1,6.1c1.5,1.7,3.5,2.9,5.7,3.7C140.8,224.5,143.2,225,145.8,225.4z"/>
	</g>
	<g>
		<path class="st6" d="M144,231.4c-2,1.7-4.6,2.8-7.3,3.3c-2.7,0.5-5.7,0.2-8.3-1.2c-2.6-1.4-4.5-3.7-5.6-6.2
			c-1.1-2.5-1.6-5.2-1.6-7.8c1.2,2.4,2.2,4.7,3.6,6.6c1.4,2,3,3.7,5,4.7c2,1.1,4.2,1.5,6.7,1.5C139,232.3,141.5,231.9,144,231.4z"/>
	</g>
	<g>
		<path class="st6" d="M143.5,240.9c-1.9,1.9-4.3,3.2-7,3.9c-2.6,0.7-5.7,0.7-8.3-0.5c-2.7-1.1-4.8-3.3-6.1-5.7
			c-1.3-2.4-2.1-5-2.2-7.6c1.4,2.3,2.6,4.5,4.2,6.3c1.5,1.9,3.3,3.4,5.4,4.3c2,0.9,4.4,1.2,6.8,1C138.5,242.3,141,241.7,143.5,240.9
			z"/>
	</g>
	<g>
		<path class="st5" d="M248.6,309.6c0,0,11.9,14.7,22.1,0"/>
		<path class="st7" d="M248.6,309.6c0.8,0.8,1.6,1.5,2.5,2.2c0.9,0.7,1.8,1.3,2.7,1.8c1.9,1.1,3.9,1.9,6,2c2.1,0.2,4.2-0.5,6-1.6
			c1.8-1.1,3.4-2.7,4.8-4.4c-0.3,0.5-0.6,1-0.9,1.4c-0.3,0.4-0.7,0.9-1,1.3c-0.7,0.8-1.6,1.6-2.5,2.3c-0.9,0.7-2,1.2-3.1,1.6
			c-1.1,0.3-2.3,0.5-3.5,0.4c-2.3-0.2-4.5-1.1-6.4-2.3C251.6,313,249.9,311.4,248.6,309.6z"/>
	</g>
	<g>
		<path class="st6" d="M366.8,157.4c0,0,45.4-33.3,49.7-71.5s4.3-38.1,4.3-38.1s-7.6,30.7-24.7,43.7c-17.2,12.9-20.3,49.8-20.3,49.8
			"/>
		<g>
			<path class="st5" d="M370,150.5c2.9-2.4,5.5-5,8-7.8c2.5-2.7,4.9-5.6,7-8.6c4.4-6,8.3-12.3,11.4-19c3.3-6.7,5.5-13.8,8.1-20.7
				l3.9-10.5l4-10.4L408.9,84l-3.6,10.6c-1.2,3.5-2.4,7-3.7,10.5l-2,5.2l-2.3,5.1c-3.3,6.7-7.2,13.2-11.7,19.1
				C381.1,140.5,376,146,370,150.5z"/>
		</g>
		<g>
			<path class="st5" d="M400,108.3c-0.3-2-0.5-4.1-0.6-6.1c-0.1-2-0.2-4.1-0.1-6.1l0,0l0,0c0.3-2,0.6-4,1.1-6c0,2.1,0,4.1-0.2,6.1
				l0-0.1c0.1,2,0.2,4.1,0.1,6.1C400.3,104.2,400.2,106.3,400,108.3z"/>
		</g>
		<g>
			<path class="st5" d="M386.8,132c-0.3-2-0.5-4.1-0.6-6.1c-0.1-2-0.2-4.1-0.1-6.1l0,0l0,0c0.3-2,0.6-4,1.1-6c0,2.1,0,4.1-0.2,6.1
				l0-0.1c0.1,2,0.2,4.1,0.1,6.1C387.1,127.9,387,129.9,386.8,132z"/>
		</g>
		<g>
			<path class="st5" d="M393.4,122.2c1.2-1.6,2.6-3.2,4-4.7c1.4-1.5,2.8-3,4.3-4.4l0,0c1.3-1.6,2.6-3.1,4-4.6
				c-1,1.8-2.1,3.5-3.3,5.1l0,0l0,0c-1.4,1.5-2.8,3-4.3,4.4C396.6,119.5,395,120.9,393.4,122.2z"/>
		</g>
		<g>
			<path class="st5" d="M404.9,94.9c1-1.8,2.1-3.5,3.3-5.2c1.2-1.7,2.4-3.3,3.6-5l0,0c1-1.7,2.1-3.5,3.4-5.1
				c-0.8,1.9-1.6,3.7-2.6,5.6l0,0l0,0c-1.2,1.7-2.4,3.3-3.6,5C407.7,91.8,406.3,93.4,404.9,94.9z"/>
		</g>
	</g>
	<ellipse class="st8" cx="155.9" cy="289.3" rx="11.9" ry="6.1"/>
	<ellipse class="st8" cx="358.4" cy="289.3" rx="11.9" ry="6.1"/>
</g>
</svg>
