<svg id="Calque_1" data-name="Calque 1" xmlns="http://www.w3.org/2000/svg" viewBox="0 0 781.95 163.56" height="55px" ><defs><style>.cls-1,.cls-4{fill:none;}.cls-1,.cls-2,.cls-3,.cls-4,.cls-5{stroke:#1d1d1b;stroke-miterlimit:10;}.cls-1{stroke-linecap:round;}.cls-1,.cls-2,.cls-3,.cls-5{stroke-width:10px;}.cls-2{fill:#f8cb00;}.cls-3{fill:#e52225;}.cls-4{stroke-width:9px;}.cls-5{fill:#7ccad7;}</style></defs><path class="cls-1" d="M636.59,486.08v129a76.79,76.79,0,1,0-63-75.54,76.57,76.57,0,0,0,26,57.58" transform="translate(-568.62 -457.79)"/><path class="cls-1" d="M744.55,468.36v95.38a26.71,26.71,0,0,0,12,22.57c5.89,3.78,13.5,5.17,21.8-2.1a26.89,26.89,0,0,0,9-20.25v-95.6h87.34" transform="translate(-568.62 -457.79)"/><path class="cls-1" d="M1110.82,474v95.38a26.71,26.71,0,0,0,12,22.57c5.9,3.78,13.51,5.17,21.81-2.1a26.89,26.89,0,0,0,9-20.25V474" transform="translate(-568.62 -457.79)"/><path class="cls-1" d="M1302.72,472v95.38a26.71,26.71,0,0,0,12,22.57c5.9,3.78,13.51,5.17,21.81-2.1a26.89,26.89,0,0,0,9-20.25V472" transform="translate(-568.62 -457.79)"/><circle class="cls-2" cx="281.37" cy="88.72" r="42.88"/><circle class="cls-3" cx="481.47" cy="88.72" r="42.88"/><line class="cls-4" x1="456.83" y1="13.69" x2="506.23" y2="13.69"/><circle class="cls-5" cx="672.09" cy="88.72" r="42.88"/><polyline class="cls-1" points="411.28 135.71 411.28 13.69 506.23 13.69"/><polyline class="cls-1" points="602.91 135.71 602.91 13.69 693.31 13.26"/></svg>