<?xml version="1.0" encoding="utf-8"?>
<!-- Generator: Adobe Illustrator 25.2.1, SVG Export Plug-In . SVG Version: 6.00 Build 0)  -->
<svg version="1.1" xmlns="http://www.w3.org/2000/svg" xmlns:xlink="http://www.w3.org/1999/xlink" x="0px" y="0px"
	 viewBox="0 0 63.9 63.9" style="enable-background:new 0 0 63.9 63.9;" xml:space="preserve" width="25px" height="25px">
<style type="text/css">
	.st0{display:none;}
	.st1{display:inline;}
	.st2{fill:#7CCAD7;}
	.st3{fill:#FFFFFF;}
	.st4{fill:#2E0638;}
	.st5{fill:#FFFFFF;stroke:#2D2D2D;stroke-width:0.3;stroke-miterlimit:10;}
	.st6{fill:#565656;}
</style>
<g id="Capa_1" class="st0">
	<g class="st1">
		<path d="M51.1,28.5c-0.2-0.2-0.6-0.2-0.8,0l-2.8,2.8c-0.3-9.3-8-16.9-17.4-16.9c-9.6,0-17.4,7.8-17.4,17.4
			c0,9.6,7.8,17.4,17.4,17.4c4.7,0,9-1.8,12.3-5.1c0.2-0.2,0.2-0.6,0-0.8c-0.2-0.2-0.6-0.2-0.8,0c-3.1,3.1-7.2,4.8-11.5,4.8
			c-9,0-16.3-7.3-16.3-16.3c0-9,7.3-16.3,16.3-16.3c8.9,0,16.2,7.2,16.3,16.2l-3.3-3.3c-0.2-0.2-0.6-0.2-0.8,0
			c-0.2,0.2-0.2,0.6,0,0.8l4.4,4.4l4.4-4.4C51.3,29.1,51.3,28.8,51.1,28.5z"/>
	</g>
</g>
<g id="Calque_2">
	<g>
		<path class="st2" d="M49.5,17.3c0,0,8.2-4.2,9.9-10.2s1.7-6,1.7-6s-2,4.8-5.1,6.4s-4.6,7.5-4.6,7.5"/>
		<g>
			<path class="st3" d="M50.2,16.2c1-0.6,2-1.4,2.8-2.3c0.9-0.9,1.6-1.8,2.3-2.8c0.7-1,1.2-2.1,1.9-3.1c0.6-1.1,1.2-2.1,1.9-3.1
				C58.5,6,58,7.1,57.4,8.2c-0.6,1.1-1.1,2.2-1.8,3.2C54.2,13.3,52.4,15.1,50.2,16.2z"/>
		</g>
		<g>
			<path class="st3" d="M56.1,10.2c0-0.3,0-0.7,0-1c0-0.3,0.1-0.7,0.1-1l0,0l0,0c0.1-0.3,0.2-0.6,0.4-0.9c0,0.3-0.1,0.7-0.1,1l0,0
				c0,0.3-0.1,0.7-0.1,1C56.4,9.6,56.3,9.9,56.1,10.2z"/>
		</g>
		<g>
			<path class="st3" d="M53.4,13.7c0-0.3,0-0.7,0-1c0-0.3,0.1-0.7,0.1-1l0,0l0,0c0.1-0.3,0.2-0.6,0.4-0.9c0,0.3-0.1,0.7-0.1,1l0,0
				c0,0.3-0.1,0.7-0.1,1C53.6,13,53.5,13.4,53.4,13.7z"/>
		</g>
		<g>
			<path class="st3" d="M54.7,12.3c0.2-0.3,0.5-0.5,0.7-0.7c0.3-0.2,0.5-0.4,0.8-0.6l0,0c0.2-0.2,0.5-0.4,0.8-0.6
				c-0.2,0.3-0.4,0.5-0.6,0.8l0,0l0,0c-0.3,0.2-0.5,0.4-0.8,0.6C55.3,12,55,12.1,54.7,12.3z"/>
		</g>
		<g>
			<path class="st3" d="M57.3,8.2c0.2-0.3,0.4-0.6,0.6-0.8c0.2-0.2,0.5-0.5,0.7-0.7l0,0c0.2-0.3,0.5-0.5,0.7-0.7
				c-0.1,0.3-0.3,0.6-0.5,0.9l0,0l0,0c-0.2,0.2-0.5,0.5-0.7,0.7C57.9,7.8,57.6,8,57.3,8.2z"/>
		</g>
	</g>
	<path class="st4" d="M32,8.1L9.2,15c0,0,0.8,32.4,6.3,39.2S32,63.8,32,63.8s11-2.8,16.4-9.6S54.7,15,54.7,15L32,8.1z"/>
	<circle class="st5" cx="39.9" cy="27.4" r="6.2"/>
	<circle class="st6" cx="39.9" cy="27.4" r="3.4"/>
	<circle cx="39.9" cy="27.4" r="2.6"/>
	<circle class="st3" cx="37.6" cy="29.3" r="1.1"/>
	<circle class="st5" cx="24" cy="27.3" r="6.2"/>
	<circle class="st6" cx="24" cy="27.3" r="3.4"/>
	<circle cx="24" cy="27.3" r="2.6"/>
	<circle class="st3" cx="21.7" cy="29.2" r="1.1"/>
	<g>
		<path class="st2" d="M22.3,44.7c1.7,0.5,3.2,1.2,4.8,1.9l-0.7,0c1.4-1.1,2.8-2.1,4.2-3.1l2.2-1.5l2.2-1.4c3-1.8,6-3.5,9.2-4.9
			c-2.6,2.4-5.3,4.5-8.2,6.5l-2.2,1.5l-2.2,1.4c-1.5,0.9-3,1.8-4.5,2.6l-0.4,0.2l-0.3-0.2C25,46.8,23.6,45.8,22.3,44.7z"/>
	</g>
</g>
</svg>
