<?xml version="1.0" encoding="utf-8"?>
<!-- Generator: Adobe Illustrator 25.2.1, SVG Export Plug-In . SVG Version: 6.00 Build 0)  -->
<svg version="1.1" xmlns="http://www.w3.org/2000/svg" xmlns:xlink="http://www.w3.org/1999/xlink" x="0px" y="0px"
	 viewBox="0 0 512 512" style="enable-background:new 0 0 512 512;" xml:space="preserve" height="35px" width="35px">
<style type="text/css">
	.st0{display:none;}
	.st1{display:inline;}
	.st2{fill:url(#SVGID_1_);}
	.st3{fill:url(#SVGID_2_);}
	.st4{fill:url(#SVGID_3_);}
	.st5{fill:url(#SVGID_4_);}
	.st6{fill:#EFB1D2;}
	.st7{fill:#FFFFFF;}
	.st8{fill:#353544;}
	.st9{fill:url(#SVGID_5_);}
	.st10{fill:#D44C5F;}
	.st11{fill:#2E0638;}
	.st12{fill:#7CCAD7;}
	.st13{fill:#FFFFFF;stroke:#2D2D2D;stroke-miterlimit:10;}
	.st14{fill:#565656;}
	.st15{fill:#5D3766;}
</style>
<g id="Capa_1" class="st0">
	<g class="st1">
		
			<linearGradient id="SVGID_1_" gradientUnits="userSpaceOnUse" x1="247.7969" y1="301.0804" x2="247.7969" y2="438.7674" gradientTransform="matrix(1.0199 0 0 -1.0199 3.2669 524.317)">
			<stop  offset="0" style="stop-color:#8B71C7"/>
			<stop  offset="1" style="stop-color:#A891D9"/>
		</linearGradient>
		<path class="st2" d="M435.7,264.1h-70.3V146.9c0-28.7-23.4-52.1-52.1-52.1H198.6c-28.7,0-52.1,23.4-52.1,52.1v117.2H76.3V146.9
			c0-67.5,54.9-122.3,122.3-122.3h114.8c67.5,0,122.3,54.9,122.3,122.3L435.7,264.1L435.7,264.1z"/>
		
			<linearGradient id="SVGID_2_" gradientUnits="userSpaceOnUse" x1="247.7969" y1="208.5644" x2="247.7969" y2="-19.3736" gradientTransform="matrix(1.0199 0 0 -1.0199 3.2669 524.317)">
			<stop  offset="0" style="stop-color:#EC6476"/>
			<stop  offset="1" style="stop-color:#EC909C"/>
		</linearGradient>
		<path class="st3" d="M479.1,252.4H32.9l41,191.3c7.7,36,39.6,61.8,76.4,61.8h211.3c36.8,0,68.7-25.7,76.4-61.8L479.1,252.4z"/>
		
			<linearGradient id="SVGID_3_" gradientUnits="userSpaceOnUse" x1="247.7959" y1="186.5454" x2="247.7959" y2="311.7534" gradientTransform="matrix(1.0199 0 0 -1.0199 3.2669 524.317)">
			<stop  offset="0" style="stop-color:#F4D84A"/>
			<stop  offset="1" style="stop-color:#F9EA9D"/>
		</linearGradient>
		<path class="st4" d="M256,305.2c-96.5,0-145.4-6.8-218.2-14.4c-23.2-2.4-40-23.2-37.5-46.3c2.4-23.2,23.1-40,46.3-37.5
			c72.1,7.5,116.8,13.9,209.4,13.9c92,0,136.5-6.3,209.4-13.9c23.2-2.4,43.9,14.4,46.3,37.5c2.4,23.2-14.4,43.9-37.5,46.3
			C402.6,298.4,353.2,305.2,256,305.2L256,305.2z"/>
		
			<linearGradient id="SVGID_4_" gradientUnits="userSpaceOnUse" x1="247.7969" y1="415.2274" x2="247.7969" y2="511.9464" gradientTransform="matrix(1.0199 0 0 -1.0199 3.2669 524.317)">
			<stop  offset="0" style="stop-color:#F4D84A"/>
			<stop  offset="1" style="stop-color:#F9EA9D"/>
		</linearGradient>
		<path class="st5" d="M308.5,6.5H203.5c-17.9,0-32.3,14.5-32.3,32.3v41.7c0,17.9,14.5,32.3,32.3,32.3h105.1
			c17.9,0,32.3-14.5,32.3-32.3V38.9C340.9,21,326.4,6.5,308.5,6.5z"/>
		<g>
			<ellipse class="st6" cx="166.4" cy="427.9" rx="15.2" ry="12.2"/>
			<ellipse class="st6" cx="345.6" cy="427.9" rx="15.2" ry="12.2"/>
			<circle class="st7" cx="192.5" cy="397.7" r="30.2"/>
			
				<ellipse transform="matrix(0.7071 -0.7071 0.7071 0.7071 -221.2422 261.1551)" class="st8" cx="204.6" cy="397.6" rx="18" ry="18"/>
			<circle class="st7" cx="319.5" cy="397.7" r="30.2"/>
			<g>
				<path class="st8" d="M349.7,397.7c0,9.9-8.1,18-18,18c-9.9,0-18-8.1-18-18s8.1-18,18-18C341.6,379.7,349.7,387.7,349.7,397.7z"
					/>
				<ellipse class="st8" cx="256" cy="420.6" rx="13.5" ry="17.7"/>
			</g>
		</g>
		
			<linearGradient id="SVGID_5_" gradientUnits="userSpaceOnUse" x1="247.7968" y1="196.3884" x2="247.7968" y2="351.4894" gradientTransform="matrix(1.0199 0 0 -1.0199 3.2669 524.317)">
			<stop  offset="0" style="stop-color:#F4C128"/>
			<stop  offset="1" style="stop-color:#F9DD89"/>
		</linearGradient>
		<path class="st9" d="M261.2,310.1l22.7,6.5c11.8,3.4,23.7-5.2,24.1-17.5l0.8-23.6c0.1-3.6,1.2-7,3.2-9.9l13.2-19.6
			c6.9-10.2,2.4-24.2-9.2-28.4l-22.2-8.1c-3.3-1.2-6.3-3.3-8.5-6.1l-14.5-18.6c-7.6-9.7-22.3-9.7-29.8,0l-14.5,18.6
			c-2.2,2.8-5.1,4.9-8.5,6.1l-22.2,8.1c-11.6,4.2-16.1,18.2-9.2,28.4l13.2,19.6c2,2.9,3.1,6.4,3.2,9.9l0.8,23.6
			c0.4,12.3,12.3,20.9,24.1,17.5l22.7-6.5C254.2,309.1,257.8,309.1,261.2,310.1L261.2,310.1z"/>
		<path class="st10" d="M393.1,299.3c-26.2,2.4-53.3,4.3-86,5.2c-3.1,9.2-13.2,14.9-23.1,12.1l-22.7-6.5c-3.4-1-7-1-10.5,0
			l-22.7,6.5c-10,2.9-20-2.8-23.1-12.1c-63.9-1.9-106.7-7.3-163.7-13.3l7.9,36.7c47.1,5,85.8,9.5,137.8,11.7
			c9.7,8.5,22.3,13.4,35.9,13.4c11.7,0,18-3.4,33.2-7.3c15.2,4,21.5,7.3,33.2,7.3h0c13.5,0,26.1-5,35.9-13.4
			c26.4-1.1,49.2-2.7,71.3-4.8c9.9-0.9,17.2-9.8,16.1-19.7C411.4,305.4,402.8,298.4,393.1,299.3L393.1,299.3z"/>
	</g>
</g>
<g id="Calque_2">
	<path class="st11" d="M41.2,291.2c0,0,17.8,199.8,96.8,207.1s118,0,118,0V291.2H41.2z"/>
	<path class="st11" d="M466.3,291.2c0,0-17.8,199.8-96.8,207.1s-118,0-118,0V291.2H466.3z"/>
	<path class="st12" d="M18.1,285.1c4,4.7,34.3,16.4,238.9,13.2l-1-20c0,0-191.2,10.1-223.1-14.2c-29.1-22.1-30.9,5.8-19,16.6
		C15.4,282.1,16.8,283.6,18.1,285.1z"/>
	<path class="st12" d="M489.4,285.1c-4,4.7-34.3,16.4-238.9,13.2l1-20c0,0,191.2,10.1,223.1-14.2c29.1-22.1,30.9,5.8,19,16.6
		C492.1,282.1,490.7,283.6,489.4,285.1z"/>
	<path class="st12" d="M17.4,256c0,0,220.5-209.7,233-204.7c12.5,5-217.6,212.8-217.6,212.8S23.9,276.7,17.4,256z"/>
	<path class="st12" d="M493.3,258.4c0,0-220.5-209.7-233-204.7c-12.5,5,217.6,212.8,217.6,212.8S486.8,279.1,493.3,258.4z"/>
	<circle class="st13" cx="318.6" cy="364" r="38.9"/>
	<circle class="st14" cx="318.6" cy="364" r="21.8"/>
	<circle cx="318.6" cy="364" r="16.2"/>
	<circle class="st7" cx="304.1" cy="376.1" r="7.2"/>
	<circle class="st13" cx="200.8" cy="364" r="38.9"/>
	<circle class="st14" cx="200.8" cy="364" r="21.8"/>
	<circle cx="200.8" cy="364" r="16.2"/>
	<circle class="st7" cx="186.2" cy="376.1" r="7.2"/>
	<g>
		<path class="st7" d="M246.2,429.7c2.1,1.4,4.4,2.6,6.7,3.4c2.3,0.8,4.8,1.2,7.1,1c1.2-0.1,2.4-0.3,3.5-0.6
			c0.6-0.1,1.1-0.4,1.7-0.6c0.5-0.3,1.1-0.5,1.7-0.8c2.2-1.1,4.2-2.6,6.2-4.3c-1.4,2.2-3.2,4.1-5.5,5.6c-2.2,1.5-4.8,2.5-7.6,2.7
			c-2.7,0.2-5.5-0.4-7.9-1.6C249.9,433.4,247.8,431.8,246.2,429.7z"/>
	</g>
	<g>
		<path class="st11" d="M93.6,206.8c0,0,35.3-43.9,29.7-81.8c-5.6-37.9-5.6-37.9-5.6-37.9s0.6,31.7-12.7,48.5s-6.8,53.3-6.8,53.3"/>
		<g>
			<path class="st7" d="M94.9,199.3c2.2-3,4-6.3,5.7-9.6c1.7-3.3,3.3-6.7,4.6-10.1c2.7-6.9,4.8-14,6.2-21.3
				c1.5-7.3,1.8-14.7,2.5-22.1l1-11.1l1.2-11.1l-0.7,11.2l-0.8,11.1c-0.3,3.7-0.5,7.4-0.9,11.1l-0.6,5.6l-0.9,5.5
				c-1.4,7.3-3.6,14.6-6.4,21.4C103.1,186.8,99.5,193.5,94.9,199.3z"/>
		</g>
		<g>
			<path class="st7" d="M113.1,150.9c-0.8-1.9-1.5-3.8-2.1-5.8c-0.6-1.9-1.2-3.9-1.7-5.9l0,0l0,0c-0.3-2-0.4-4-0.5-6.1
				c0.6,2,1,4,1.4,6l0-0.1c0.6,1.9,1.2,3.9,1.7,5.9C112.3,146.9,112.8,148.9,113.1,150.9z"/>
		</g>
		<g>
			<path class="st7" d="M106.4,177.1c-0.8-1.9-1.5-3.8-2.1-5.8c-0.6-1.9-1.2-3.9-1.7-5.9l0,0l0,0c-0.3-2-0.4-4-0.5-6.1
				c0.6,2,1,4,1.4,6l0-0.1c0.6,1.9,1.2,3.9,1.7,5.9C105.7,173.1,106.1,175.1,106.4,177.1z"/>
		</g>
		<g>
			<path class="st7" d="M110.3,166c0.8-1.9,1.7-3.8,2.6-5.6c0.9-1.8,1.9-3.6,3-5.4l0,0.1c0.8-1.9,1.7-3.7,2.7-5.5
				c-0.5,2-1.2,3.9-1.9,5.8l0,0l0,0c-0.9,1.8-2,3.6-3,5.4C112.7,162.6,111.5,164.3,110.3,166z"/>
		</g>
		<g>
			<path class="st7" d="M114.4,136.7c0.5-2,1.1-4,1.8-5.9c0.7-1.9,1.4-3.8,2.2-5.7l0,0.1c0.6-2,1.2-3.9,1.9-5.8c-0.2,2-0.6,4-1.1,6
				l0,0l0,0c-0.7,1.9-1.4,3.8-2.2,5.7C116.3,133,115.4,134.8,114.4,136.7z"/>
		</g>
	</g>
	<g>
		<path class="st11" d="M102.1,185.7c0,0-31-25.6-32.5-52.9s-1.5-27.3-1.5-27.3s4.1,22.2,15.8,32.1s12.4,36.3,12.4,36.3"/>
		<g>
			<path class="st7" d="M100.1,180.7c-4.1-3.4-7.6-7.5-10.6-11.9c-3-4.4-5.6-9.1-7.6-14.1c-2-5-3.3-10.1-4.8-15.2l-2.1-7.7
				c-0.7-2.6-1.4-5.1-2-7.7c0.9,2.5,1.6,5.1,2.5,7.6l2.4,7.6c1.6,5.1,2.9,10.2,5,15.1c2,4.9,4.5,9.6,7.3,14c1.4,2.2,3,4.4,4.6,6.4
				C96.4,176.8,98.1,178.8,100.1,180.7z"/>
		</g>
		<g>
			<path class="st7" d="M80.5,149.4c-0.2-1.5-0.1-2.9-0.1-4.4c0.1-1.5,0.2-2.9,0.3-4.4l0,0.1c0-1.5,0-2.9,0.2-4.4
				c0.3,1.4,0.5,2.9,0.6,4.3l0,0l0,0c-0.1,1.5-0.2,2.9-0.3,4.4C81.1,146.5,80.8,148,80.5,149.4z"/>
		</g>
		<g>
			<path class="st7" d="M88.9,166.8c-0.2-1.5-0.1-2.9-0.1-4.4c0.1-1.5,0.2-2.9,0.3-4.4l0,0.1c0-1.5,0-2.9,0.2-4.4
				c0.3,1.4,0.5,2.9,0.6,4.3l0,0l0,0c-0.1,1.5-0.2,2.9-0.3,4.4C89.5,163.9,89.3,165.4,88.9,166.8z"/>
		</g>
		<g>
			<path class="st7" d="M84.6,159.5c-1.2-0.9-2.2-2-3.2-3c-1-1.1-2-2.2-2.9-3.3l0,0l0,0c-0.7-1.2-1.5-2.5-2-3.9
				c1,1.1,1.9,2.2,2.8,3.4l0,0c1,1.1,2,2.2,2.9,3.3C82.9,157.1,83.8,158.3,84.6,159.5z"/>
		</g>
		<g>
			<path class="st7" d="M77.5,139.6c-1-1.1-1.9-2.2-2.8-3.4c-0.8-1.2-1.6-2.4-2.4-3.7l0,0l0,0c-0.6-1.3-1.1-2.7-1.5-4.1
				c0.9,1.2,1.6,2.4,2.3,3.7l0,0c0.8,1.2,1.6,2.4,2.4,3.7C76.2,137,76.9,138.3,77.5,139.6z"/>
		</g>
	</g>
	<ellipse class="st15" cx="167.4" cy="408.2" rx="18.8" ry="9.6"/>
	<ellipse class="st15" cx="352.5" cy="408.2" rx="18.8" ry="9.6"/>
</g>
</svg>
